# This file uses centimeters as units for non-parametric coordinates.

mtllib Mesh_Tyre_1.mtl
g default
v 134.503778 77.655794 -44.975136
v 77.655794 134.503778 -44.975136
v 0.000000 155.311588 -44.975136
v -77.655794 134.503778 -44.975136
v -134.503778 77.655794 -44.975136
v -155.311588 -0.000000 -44.975136
v -134.503778 -77.655794 -44.975136
v -77.655794 -134.503778 -44.975136
v 0.000000 -155.311588 -44.975136
v 77.655794 -134.503778 -44.975136
v 134.503778 -77.655794 -44.975136
v 155.311588 -0.000000 -44.975136
v 134.503778 77.655794 44.975136
v 77.655794 134.503778 44.975136
v 0.000000 155.311588 44.975136
v -77.655794 134.503778 44.975136
v -134.503778 77.655794 44.975136
v -155.311588 0.000000 44.975136
v -134.503778 -77.655794 44.975136
v -77.655794 -134.503778 44.975136
v 0.000000 -155.311588 44.975136
v 77.655794 -134.503778 44.975136
v 134.503778 -77.655794 44.975136
v 155.311588 0.000000 44.975136
v 0.000000 -0.000000 -44.975136
v 0.000000 0.000000 44.975136
v 150.524300 86.905245 -45.713704
v 86.905245 150.524300 -45.713704
v 86.905245 150.524300 45.713704
v 150.524300 86.905245 45.713704
v 0.000000 173.810490 -45.713704
v -86.905245 150.524300 -45.713704
v -86.905245 150.524300 45.713704
v 0.000000 173.810490 45.713704
v -150.524300 86.905245 -45.713704
v -173.810490 -0.000000 -45.713704
v -173.810490 0.000000 45.713704
v -150.524300 86.905245 45.713704
v -150.524300 -86.905245 -45.713704
v -86.905245 -150.524300 -45.713704
v -86.905245 -150.524300 45.713704
v -150.524300 -86.905245 45.713704
v 0.000000 -173.810490 -45.713704
v 86.905245 -150.524300 -45.713704
v 86.905245 -150.524300 45.713704
v 0.000000 -173.810490 45.713704
v 150.524300 -86.905245 -45.713704
v 173.810490 -0.000000 -45.713704
v 173.810490 0.000000 45.713704
v 150.524300 -86.905245 45.713704
vt 0.635316 0.078125
vt 0.578125 0.020934
vt 0.500000 0.000000
vt 0.421875 0.020934
vt 0.364684 0.078125
vt 0.343750 0.156250
vt 0.364684 0.234375
vt 0.421875 0.291566
vt 0.500000 0.312500
vt 0.578125 0.291566
vt 0.635316 0.234375
vt 0.656250 0.156250
vt 0.375000 0.312500
vt 0.395833 0.312500
vt 0.416667 0.312500
vt 0.437500 0.312500
vt 0.458333 0.312500
vt 0.479167 0.312500
vt 0.500000 0.312500
vt 0.520833 0.312500
vt 0.541667 0.312500
vt 0.562500 0.312500
vt 0.583333 0.312500
vt 0.604167 0.312500
vt 0.625000 0.312500
vt 0.375000 0.688440
vt 0.395833 0.688440
vt 0.416667 0.688440
vt 0.437500 0.688440
vt 0.458333 0.688440
vt 0.479167 0.688440
vt 0.500000 0.688440
vt 0.520833 0.688440
vt 0.541667 0.688440
vt 0.562500 0.688440
vt 0.583333 0.688440
vt 0.604167 0.688440
vt 0.625000 0.688440
vt 0.635316 0.765625
vt 0.578125 0.708434
vt 0.500000 0.687500
vt 0.421875 0.708434
vt 0.364684 0.765625
vt 0.343750 0.843750
vt 0.364684 0.921875
vt 0.421875 0.979066
vt 0.500000 1.000000
vt 0.578125 0.979066
vt 0.635316 0.921875
vt 0.656250 0.843750
vt 0.500000 0.150000
vt 0.500000 0.837500
vt 0.375000 0.312500
vt 0.395833 0.312500
vt 0.395833 0.688440
vt 0.375000 0.688440
vt 0.416667 0.312500
vt 0.437500 0.312500
vt 0.437500 0.688440
vt 0.416667 0.688440
vt 0.458333 0.312500
vt 0.479167 0.312500
vt 0.479167 0.688440
vt 0.458333 0.688440
vt 0.500000 0.312500
vt 0.520833 0.312500
vt 0.520833 0.688440
vt 0.500000 0.688440
vt 0.541667 0.312500
vt 0.562500 0.312500
vt 0.562500 0.688440
vt 0.541667 0.688440
vt 0.583333 0.312500
vt 0.604167 0.312500
vt 0.604167 0.688440
vt 0.583333 0.688440
vn 0.707107 0.707107 -0.000000
vn 0.707107 0.707107 -0.000000
vn 0.707107 0.707107 -0.000000
vn 0.707107 0.707107 -0.000000
vn 0.258819 0.965926 -0.000000
vn 0.258819 0.965926 -0.000000
vn 0.258819 0.965926 -0.000000
vn 0.258819 0.965926 -0.000000
vn -0.258819 0.965926 -0.000000
vn -0.258819 0.965926 -0.000000
vn -0.258819 0.965926 -0.000000
vn -0.258819 0.965926 -0.000000
vn -0.707107 0.707107 -0.000000
vn -0.707107 0.707107 -0.000000
vn -0.707107 0.707107 -0.000000
vn -0.707107 0.707107 -0.000000
vn -0.965926 0.258819 -0.000000
vn -0.965926 0.258819 -0.000000
vn -0.965926 0.258819 -0.000000
vn -0.965926 0.258819 -0.000000
vn -0.965926 -0.258819 0.000000
vn -0.965926 -0.258819 0.000000
vn -0.965926 -0.258819 0.000000
vn -0.965926 -0.258819 0.000000
vn -0.707107 -0.707107 0.000000
vn -0.707107 -0.707107 0.000000
vn -0.707107 -0.707107 0.000000
vn -0.707107 -0.707107 0.000000
vn -0.258819 -0.965926 0.000000
vn -0.258819 -0.965926 0.000000
vn -0.258819 -0.965926 0.000000
vn -0.258819 -0.965926 0.000000
vn 0.258819 -0.965926 0.000000
vn 0.258819 -0.965926 0.000000
vn 0.258819 -0.965926 0.000000
vn 0.258819 -0.965926 0.000000
vn 0.707107 -0.707107 0.000000
vn 0.707107 -0.707107 0.000000
vn 0.707107 -0.707107 0.000000
vn 0.707107 -0.707107 0.000000
vn 0.965926 -0.258819 0.000000
vn 0.965926 -0.258819 0.000000
vn 0.965926 -0.258819 0.000000
vn 0.965926 -0.258819 0.000000
vn 0.965926 0.258819 -0.000000
vn 0.965926 0.258819 -0.000000
vn 0.965926 0.258819 -0.000000
vn 0.965926 0.258819 -0.000000
vn 0.000000 -0.000000 -1.000000
vn 0.000000 -0.000000 -1.000000
vn 0.000000 -0.000000 -1.000000
vn 0.000000 -0.000000 -1.000000
vn 0.000000 -0.000000 -1.000000
vn 0.000000 -0.000000 -1.000000
vn 0.000000 -0.000000 -1.000000
vn 0.000000 -0.000000 -1.000000
vn 0.000000 -0.000000 -1.000000
vn 0.000000 -0.000000 -1.000000
vn 0.000000 -0.000000 -1.000000
vn 0.000000 -0.000000 -1.000000
vn 0.000000 -0.000000 -1.000000
vn 0.000000 0.000000 1.000000
vn 0.000000 0.000000 1.000000
vn 0.000000 0.000000 1.000000
vn 0.000000 0.000000 1.000000
vn 0.000000 0.000000 1.000000
vn 0.000000 0.000000 1.000000
vn 0.000000 0.000000 1.000000
vn 0.000000 0.000000 1.000000
vn 0.000000 0.000000 1.000000
vn 0.000000 0.000000 1.000000
vn 0.000000 0.000000 1.000000
vn 0.000000 0.000000 1.000000
vn 0.000000 0.000000 1.000000
vn -0.029202 -0.029202 -0.999147
vn -0.029202 -0.029202 -0.999147
vn -0.029202 -0.029202 -0.999147
vn -0.029202 -0.029202 -0.999147
vn -0.866025 0.500000 -0.000000
vn -0.866025 0.500000 -0.000000
vn -0.866025 0.500000 -0.000000
vn -0.866025 0.500000 -0.000000
vn -0.029202 -0.029202 0.999147
vn -0.029202 -0.029202 0.999147
vn -0.029202 -0.029202 0.999147
vn -0.029202 -0.029202 0.999147
vn 0.500000 -0.866025 0.000000
vn 0.500000 -0.866025 0.000000
vn 0.500000 -0.866025 0.000000
vn 0.500000 -0.866025 0.000000
vn 0.010689 -0.039891 -0.999147
vn 0.010689 -0.039891 -0.999147
vn 0.010689 -0.039891 -0.999147
vn 0.010689 -0.039891 -0.999147
vn -0.866025 -0.500000 0.000000
vn -0.866025 -0.500000 0.000000
vn -0.866025 -0.500000 0.000000
vn -0.866025 -0.500000 0.000000
vn 0.010689 -0.039891 0.999147
vn 0.010689 -0.039891 0.999147
vn 0.010689 -0.039891 0.999147
vn 0.010689 -0.039891 0.999147
vn 1.000000 0.000000 0.000000
vn 1.000000 0.000000 0.000000
vn 1.000000 0.000000 0.000000
vn 1.000000 0.000000 0.000000
vn 0.039891 -0.010689 -0.999147
vn 0.039891 -0.010689 -0.999147
vn 0.039891 -0.010689 -0.999147
vn 0.039891 -0.010689 -0.999147
vn 0.000000 -1.000000 0.000000
vn 0.000000 -1.000000 0.000000
vn 0.000000 -1.000000 0.000000
vn 0.000000 -1.000000 0.000000
vn 0.039891 -0.010689 0.999147
vn 0.039891 -0.010689 0.999147
vn 0.039891 -0.010689 0.999147
vn 0.039891 -0.010689 0.999147
vn 0.500000 0.866025 -0.000000
vn 0.500000 0.866025 -0.000000
vn 0.500000 0.866025 -0.000000
vn 0.500000 0.866025 -0.000000
vn 0.029202 0.029202 -0.999147
vn 0.029202 0.029202 -0.999147
vn 0.029202 0.029202 -0.999147
vn 0.029202 0.029202 -0.999147
vn 0.866025 -0.500000 0.000000
vn 0.866025 -0.500000 0.000000
vn 0.866025 -0.500000 0.000000
vn 0.866025 -0.500000 0.000000
vn 0.029202 0.029202 0.999147
vn 0.029202 0.029202 0.999147
vn 0.029202 0.029202 0.999147
vn 0.029202 0.029202 0.999147
vn -0.500000 0.866025 -0.000000
vn -0.500000 0.866025 -0.000000
vn -0.500000 0.866025 -0.000000
vn -0.500000 0.866025 -0.000000
vn -0.010689 0.039891 -0.999147
vn -0.010689 0.039891 -0.999147
vn -0.010689 0.039891 -0.999147
vn -0.010689 0.039891 -0.999147
vn 0.866025 0.500000 -0.000000
vn 0.866025 0.500000 -0.000000
vn 0.866025 0.500000 -0.000000
vn 0.866025 0.500000 -0.000000
vn -0.010689 0.039891 0.999147
vn -0.010689 0.039891 0.999147
vn -0.010689 0.039891 0.999147
vn -0.010689 0.039891 0.999147
vn -1.000000 0.000000 0.000000
vn -1.000000 0.000000 0.000000
vn -1.000000 0.000000 0.000000
vn -1.000000 0.000000 0.000000
vn -0.039891 0.010689 -0.999147
vn -0.039891 0.010689 -0.999147
vn -0.039891 0.010689 -0.999147
vn -0.039891 0.010689 -0.999147
vn 0.000000 1.000000 -0.000000
vn 0.000000 1.000000 -0.000000
vn 0.000000 1.000000 -0.000000
vn 0.000000 1.000000 -0.000000
vn -0.039891 0.010689 0.999147
vn -0.039891 0.010689 0.999147
vn -0.039891 0.010689 0.999147
vn -0.039891 0.010689 0.999147
vn -0.500000 -0.866025 0.000000
vn -0.500000 -0.866025 0.000000
vn -0.500000 -0.866025 0.000000
vn -0.500000 -0.866025 0.000000
s off
g Mesh_Tyre_1
usemtl initialShadingGroup
f 27/53/1 28/54/2 29/55/3 30/56/4
f 2/14/5 3/15/6 15/28/7 14/27/8
f 31/57/9 32/58/10 33/59/11 34/60/12
f 4/16/13 5/17/14 17/30/15 16/29/16
f 35/61/17 36/62/18 37/63/19 38/64/20
f 6/18/21 7/19/22 19/32/23 18/31/24
f 39/65/25 40/66/26 41/67/27 42/68/28
f 8/20/29 9/21/30 21/34/31 20/33/32
f 43/69/33 44/70/34 45/71/35 46/72/36
f 10/22/37 11/23/38 23/36/39 22/35/40
f 47/73/41 48/74/42 49/75/43 50/76/44
f 12/24/45 1/25/46 13/38/47 24/37/48
s 1
f 2/2/49 1/1/50 25/51/51
f 3/3/52 2/2/49 25/51/51
f 4/4/53 3/3/52 25/51/51
f 5/5/54 4/4/53 25/51/51
f 6/6/55 5/5/54 25/51/51
f 7/7/56 6/6/55 25/51/51
f 8/8/57 7/7/56 25/51/51
f 9/9/58 8/8/57 25/51/51
f 10/10/59 9/9/58 25/51/51
f 11/11/60 10/10/59 25/51/51
f 12/12/61 11/11/60 25/51/51
f 1/1/50 12/12/61 25/51/51
s 2
f 13/49/62 14/48/63 26/52/64
f 14/48/63 15/47/65 26/52/64
f 15/47/65 16/46/66 26/52/64
f 16/46/66 17/45/67 26/52/64
f 17/45/67 18/44/68 26/52/64
f 18/44/68 19/43/69 26/52/64
f 19/43/69 20/42/70 26/52/64
f 20/42/70 21/41/71 26/52/64
f 21/41/71 22/40/72 26/52/64
f 22/40/72 23/39/73 26/52/64
f 23/39/73 24/50/74 26/52/64
f 24/50/74 13/49/62 26/52/64
s off
f 1/13/75 2/14/76 28/54/77 27/53/78
f 2/14/79 14/27/80 29/55/81 28/54/82
f 14/27/83 13/26/84 30/56/85 29/55/86
f 13/26/87 1/13/88 27/53/89 30/56/90
f 3/15/91 4/16/92 32/58/93 31/57/94
f 4/16/95 16/29/96 33/59/97 32/58/98
f 16/29/99 15/28/100 34/60/101 33/59/102
f 15/28/103 3/15/104 31/57/105 34/60/106
f 5/17/107 6/18/108 36/62/109 35/61/110
f 6/18/111 18/31/112 37/63/113 36/62/114
f 18/31/115 17/30/116 38/64/117 37/63/118
f 17/30/119 5/17/120 35/61/121 38/64/122
f 7/19/123 8/20/124 40/66/125 39/65/126
f 8/20/127 20/33/128 41/67/129 40/66/130
f 20/33/131 19/32/132 42/68/133 41/67/134
f 19/32/135 7/19/136 39/65/137 42/68/138
f 9/21/139 10/22/140 44/70/141 43/69/142
f 10/22/143 22/35/144 45/71/145 44/70/146
f 22/35/147 21/34/148 46/72/149 45/71/150
f 21/34/151 9/21/152 43/69/153 46/72/154
f 11/23/155 12/24/156 48/74/157 47/73/158
f 12/24/159 24/37/160 49/75/161 48/74/162
f 24/37/163 23/36/164 50/76/165 49/75/166
f 23/36/167 11/23/168 47/73/169 50/76/170
